<svg width="1437" height="449" viewBox="0 0 1437 449" fill="none" xmlns="http://www.w3.org/2000/svg">
<rect width="1440" height="449" fill="#525252" fill-opacity="0.5"/>
<path d="M131.224 277.896C127.555 277.896 124.013 277.448 120.6 276.552C117.229 275.613 114.477 274.419 112.344 272.968L116.504 263.624C118.509 264.904 120.813 265.971 123.416 266.824C126.061 267.635 128.685 268.04 131.288 268.04C133.037 268.04 134.445 267.891 135.512 267.592C136.579 267.251 137.347 266.824 137.816 266.312C138.328 265.757 138.584 265.117 138.584 264.392C138.584 263.368 138.115 262.557 137.176 261.96C136.237 261.363 135.021 260.872 133.528 260.488C132.035 260.104 130.371 259.72 128.536 259.336C126.744 258.952 124.931 258.461 123.096 257.864C121.304 257.267 119.661 256.499 118.168 255.56C116.675 254.579 115.459 253.32 114.52 251.784C113.581 250.205 113.112 248.221 113.112 245.832C113.112 243.144 113.837 240.712 115.288 238.536C116.781 236.36 119 234.611 121.944 233.288C124.888 231.965 128.557 231.304 132.952 231.304C135.896 231.304 138.776 231.645 141.592 232.328C144.451 232.968 146.989 233.928 149.208 235.208L145.304 244.616C143.171 243.464 141.059 242.611 138.968 242.056C136.877 241.459 134.851 241.16 132.888 241.16C131.139 241.16 129.731 241.352 128.664 241.736C127.597 242.077 126.829 242.547 126.36 243.144C125.891 243.741 125.656 244.424 125.656 245.192C125.656 246.173 126.104 246.963 127 247.56C127.939 248.115 129.155 248.584 130.648 248.968C132.184 249.309 133.848 249.672 135.64 250.056C137.475 250.44 139.288 250.931 141.08 251.528C142.915 252.083 144.579 252.851 146.072 253.832C147.565 254.771 148.76 256.029 149.656 257.608C150.595 259.144 151.064 261.085 151.064 263.432C151.064 266.035 150.317 268.445 148.824 270.664C147.373 272.84 145.176 274.589 142.232 275.912C139.331 277.235 135.661 277.896 131.224 277.896ZM174.518 277.576C170.422 277.576 166.838 276.808 163.766 275.272C160.736 273.693 158.368 271.56 156.661 268.872C154.998 266.141 154.166 263.048 154.166 259.592C154.166 256.136 154.976 253.064 156.598 250.376C158.262 247.645 160.544 245.533 163.446 244.04C166.347 242.504 169.611 241.736 173.238 241.736C176.651 241.736 179.766 242.44 182.582 243.848C185.398 245.213 187.638 247.24 189.302 249.928C190.966 252.616 191.798 255.88 191.798 259.72C191.798 260.147 191.776 260.637 191.734 261.192C191.691 261.747 191.648 262.259 191.606 262.728H164.15V256.328H185.142L180.534 258.12C180.576 256.541 180.278 255.176 179.638 254.024C179.04 252.872 178.187 251.976 177.078 251.336C176.011 250.696 174.752 250.376 173.302 250.376C171.851 250.376 170.571 250.696 169.462 251.336C168.395 251.976 167.563 252.893 166.966 254.088C166.368 255.24 166.07 256.605 166.07 258.184V260.04C166.07 261.747 166.411 263.219 167.094 264.456C167.819 265.693 168.843 266.653 170.166 267.336C171.488 267.976 173.067 268.296 174.902 268.296C176.608 268.296 178.059 268.061 179.254 267.592C180.491 267.08 181.707 266.312 182.902 265.288L189.302 271.944C187.638 273.779 185.59 275.187 183.158 276.168C180.726 277.107 177.846 277.576 174.518 277.576ZM197.404 277V242.312H208.988V252.424L207.26 249.544C208.284 246.941 209.948 245 212.252 243.72C214.556 242.397 217.351 241.736 220.636 241.736V252.68C220.081 252.595 219.591 252.552 219.164 252.552C218.78 252.509 218.353 252.488 217.884 252.488C215.409 252.488 213.404 253.171 211.868 254.536C210.332 255.859 209.564 258.035 209.564 261.064V277H197.404ZM236.381 277L222.108 242.312H234.589L245.981 271.304H239.708L251.677 242.312H263.261L248.925 277H236.381ZM266.404 277V242.312H278.564V277H266.404ZM272.484 238.472C270.265 238.472 268.473 237.853 267.108 236.616C265.743 235.379 265.06 233.843 265.06 232.008C265.06 230.173 265.743 228.637 267.108 227.4C268.473 226.163 270.265 225.544 272.484 225.544C274.703 225.544 276.495 226.141 277.86 227.336C279.225 228.488 279.908 229.981 279.908 231.816C279.908 233.736 279.225 235.336 277.86 236.616C276.537 237.853 274.745 238.472 272.484 238.472ZM304.195 277.576C300.355 277.576 296.92 276.808 293.891 275.272C290.904 273.736 288.557 271.624 286.851 268.936C285.144 266.205 284.291 263.091 284.291 259.592C284.291 256.093 285.144 253 286.851 250.312C288.557 247.624 290.904 245.533 293.891 244.04C296.92 242.504 300.355 241.736 304.195 241.736C308.12 241.736 311.512 242.568 314.371 244.232C317.229 245.896 319.256 248.243 320.451 251.272L311.043 256.072C310.232 254.451 309.229 253.277 308.035 252.552C306.84 251.784 305.539 251.4 304.131 251.4C302.723 251.4 301.443 251.72 300.291 252.36C299.139 253 298.221 253.939 297.539 255.176C296.899 256.371 296.579 257.843 296.579 259.592C296.579 261.384 296.899 262.899 297.539 264.136C298.221 265.373 299.139 266.312 300.291 266.952C301.443 267.592 302.723 267.912 304.131 267.912C305.539 267.912 306.84 267.549 308.035 266.824C309.229 266.056 310.232 264.861 311.043 263.24L320.451 268.04C319.256 271.069 317.229 273.416 314.371 275.08C311.512 276.744 308.12 277.576 304.195 277.576ZM342.83 277.576C338.734 277.576 335.15 276.808 332.078 275.272C329.049 273.693 326.681 271.56 324.974 268.872C323.31 266.141 322.478 263.048 322.478 259.592C322.478 256.136 323.289 253.064 324.91 250.376C326.574 247.645 328.857 245.533 331.758 244.04C334.659 242.504 337.923 241.736 341.55 241.736C344.963 241.736 348.078 242.44 350.894 243.848C353.71 245.213 355.95 247.24 357.614 249.928C359.278 252.616 360.11 255.88 360.11 259.72C360.11 260.147 360.089 260.637 360.046 261.192C360.003 261.747 359.961 262.259 359.918 262.728H332.462V256.328H353.454L348.846 258.12C348.889 256.541 348.59 255.176 347.95 254.024C347.353 252.872 346.499 251.976 345.39 251.336C344.323 250.696 343.065 250.376 341.614 250.376C340.163 250.376 338.883 250.696 337.774 251.336C336.707 251.976 335.875 252.893 335.278 254.088C334.681 255.24 334.382 256.605 334.382 258.184V260.04C334.382 261.747 334.723 263.219 335.406 264.456C336.131 265.693 337.155 266.653 338.478 267.336C339.801 267.976 341.379 268.296 343.214 268.296C344.921 268.296 346.371 268.061 347.566 267.592C348.803 267.08 350.019 266.312 351.214 265.288L357.614 271.944C355.95 273.779 353.902 275.187 351.47 276.168C349.038 277.107 346.158 277.576 342.83 277.576ZM378.325 277.576C375.381 277.576 372.501 277.235 369.685 276.552C366.911 275.869 364.671 275.016 362.965 273.992L366.613 265.672C368.234 266.653 370.133 267.443 372.309 268.04C374.485 268.595 376.618 268.872 378.708 268.872C380.757 268.872 382.165 268.659 382.933 268.232C383.743 267.805 384.149 267.229 384.149 266.504C384.149 265.821 383.765 265.331 382.997 265.032C382.271 264.691 381.29 264.435 380.053 264.264C378.858 264.093 377.535 263.901 376.085 263.688C374.634 263.475 373.162 263.197 371.669 262.856C370.218 262.472 368.874 261.917 367.637 261.192C366.442 260.424 365.482 259.4 364.757 258.12C364.031 256.84 363.669 255.219 363.669 253.256C363.669 251.037 364.309 249.075 365.589 247.368C366.911 245.619 368.831 244.253 371.349 243.272C373.866 242.248 376.938 241.736 380.565 241.736C382.997 241.736 385.45 241.992 387.925 242.504C390.442 242.973 392.554 243.699 394.261 244.68L390.613 252.936C388.906 251.955 387.199 251.293 385.493 250.952C383.786 250.568 382.165 250.376 380.628 250.376C378.581 250.376 377.13 250.611 376.277 251.08C375.466 251.549 375.061 252.125 375.061 252.808C375.061 253.491 375.423 254.024 376.149 254.408C376.874 254.749 377.834 255.027 379.029 255.24C380.266 255.411 381.61 255.603 383.061 255.816C384.511 255.987 385.962 256.264 387.413 256.648C388.906 257.032 390.25 257.608 391.445 258.376C392.682 259.101 393.663 260.104 394.389 261.384C395.114 262.621 395.477 264.221 395.477 266.184C395.477 268.317 394.815 270.237 393.493 271.944C392.213 273.651 390.293 275.016 387.733 276.04C385.215 277.064 382.079 277.576 378.325 277.576Z" fill="white"/>
</svg>
